<?xml version="1.0" encoding="utf-8"?>
<!-- Svg Vector Icons : http://www.onlinewebfonts.com/icon -->
<!DOCTYPE svg PUBLIC "-//W3C//DTD SVG 1.1//EN" "http://www.w3.org/Graphics/SVG/1.1/DTD/svg11.dtd">
<svg version="1.1" xmlns="http://www.w3.org/2000/svg" xmlns:xlink="http://www.w3.org/1999/xlink" x="0px" y="0px" viewBox="0 0 1000 1000" enable-background="new 0 0 1000 1000" xml:space="preserve">
<metadata> Svg Vector Icons : http://www.onlinewebfonts.com/icon </metadata>
<g><g transform="translate(0.000000,511.000000) scale(0.100000,-0.100000)"><path d="M5086.5,4988.9c6.3-10.6,21.1-21.1,33.8-21.1c10.6,0,19,10.6,19,21.1c0,12.7-14.8,21.1-33.8,21.1C5088.6,5010,5080.2,5001.6,5086.5,4988.9z"/><path d="M4750.8,4889.6c-16.9-19,29.6-69.7,63.3-69.7c46.4,0,35.9,76-10.6,78.1C4782.5,4900.2,4757.1,4896,4750.8,4889.6z"/><path d="M4636.8,4714.4c0-29.6,4.2-40.1,10.6-25.3c4.2,12.7,4.2,38,0,52.8C4641,4754.5,4636.8,4743.9,4636.8,4714.4z"/><path d="M5054.8,4598.3c-27.4-73.9-16.9-86.6,31.7-31.7c29.6,31.7,33.8,48.6,14.8,67.6C5084.4,4651.1,5071.7,4642.6,5054.8,4598.3z"/><path d="M4706.4,4566.6c-35.9-14.8-29.6-19,27.4-19c42.2-2.1,65.5,6.3,57,19C4776.1,4591.9,4763.5,4591.9,4706.4,4566.6z"/><path d="M4358.1,4366c0-21.1-21.1-31.7-65.5-31.7c-61.2,0-65.5-4.2-54.9-57c6.3-31.7-2.1-84.5-19-116.1c-16.9-31.7-44.3-128.8-63.3-215.4c-21.1-88.7-44.3-160.5-54.9-160.5c-27.4,0-21.1-92.9,10.6-122.5c50.7-52.8,29.6-447.6-27.4-447.6c-8.4,0-16.9-25.3-16.9-57c0-33.8-4.2-73.9-6.3-90.8c-6.3-57,25.3-221.7,46.5-228c35.9-14.8,19-86.6-27.5-118.3c-69.7-48.6-133-42.2-160.5,16.9c-12.7,27.5-42.2,57-65.5,65.5c-25.3,6.3-44.3,23.2-44.3,35.9c0,14.8,8.4,14.8,27.4-2.1c21.1-16.9,29.6-14.8,29.6,8.4c0,16.9-14.8,31.7-31.7,31.7c-16.9,0-25.3,12.7-19,31.7c10.6,25.3,4.2,25.3-38,6.3c-29.6-12.7-52.8-38-54.9-57c-2.1-19-6.3-80.2-10.6-137.2c-8.4-84.5-4.2-99.2,21.1-90.8c19,8.5,35.9,6.3,42.2-2.1c10.6-16.9,38-221.7,42.2-312.5c2.1-38,14.8-80.2,29.6-99.2c14.8-16.9,33.8-97.1,44.3-179.5c10.6-82.4,25.3-158.4,33.8-171c21.1-35.9,48.6-27.5,63.3,19c19,59.1,54.9,29.6,40.1-29.6c-8.4-35.9,0-59.1,29.6-80.2c23.2-14.8,46.5-52.8,50.7-80.2c4.2-35.9,21.1-54.9,57-59.1c76-10.5,95,21.1,65.5,111.9c-27.4,82.3-8.4,225.9,19,149.9c8.4-23.2,33.8-44.3,54.9-46.5c103.5-14.8,139.4-35.9,168.9-92.9c33.8-67.6,27.4-105.6-19-105.6c-14.8,0-52.8-27.4-86.6-63.3c-33.8-33.8-73.9-63.3-88.7-63.3c-31.7,0-33.8-12.7-27.4-168.9c2.1-63.4,12.7-122.5,23.2-133c10.6-8.5,14.8-8.5,8.4-2.1c-14.8,23.2,48.6,71.8,95,71.8c54.9,0,90.8-80.2,57-126.7c-16.9-21.1-8.5-19,19,4.2c46.4,40.1,99.2,14.8,80.2-35.9c-12.7-31.7,139.4-57,168.9-29.6c12.7,10.6,35.9,19,57,19c25.3,0,31.7,12.7,23.2,52.8c-8.5,46.5,2.1,59.1,78.1,88.7c46.5,19,86.6,42.2,86.6,52.8s10.6,12.7,21.1,6.3c12.7-8.4,14.8-23.2,8.4-35.9c-8.4-12.7-2.1-19,14.8-12.7c44.4,16.9,219.6-82.4,251.3-141.5c14.8-29.6,46.5-52.8,67.6-52.8c42.2,0,164.7-156.2,164.7-211.1s48.6-90.8,80.2-59.1c14.8,14.8,25.3,42.2,25.3,61.2c0,52.8-57,177.4-95,209c-23.2,19-29.6,46.5-21.1,80.2c6.3,27.5,0,65.5-12.7,82.4c-44.3,50.7,21.1,73.9,71.8,25.3c25.3-21.1,52.8-40.1,61.2-40.1c31.7,0,105.6-80.2,92.9-101.3c-16.9-27.5,44.3-78.1,141.5-118.2c42.2-16.9,84.5-48.6,92.9-69.7c6.3-21.1,25.3-52.8,40.1-69.7c14.8-19,25.3-61.2,23.2-95c-2.1-44.3,4.2-63.3,27.4-63.3c16.9,2.1,61.2-19,95-44.3c90.8-63.3,187.9-82.3,221.7-40.1c29.6,33.8,126.7,44.3,126.7,10.5c0-27.4-67.6-59.1-99.2-48.6c-46.5,16.9-31.7-88.7,21.1-147.8c90.8-107.7,141.5-52.8,141.5,152c0,42.2,12.7,90.8,27.5,105.6c21.1,23.2,16.9,27.5-25.3,16.9c-33.8-8.5-69.7,2.1-105.6,29.6c-48.6,38-57,40.1-78.1,10.6c-48.6-67.6-67.6-40.1-52.8,73.9c2.1,8.4,40.1,10.6,86.6,8.4c46.5-4.2,90.8,2.1,97.1,12.7c6.3,10.6-12.7,19-42.2,19c-29.6,0-54.9,6.3-54.9,16.9c0,8.5-21.1,27.5-46.5,44.3c-44.3,27.5-46.5,27.5-19-6.3c16.9-19,21.1-42.2,12.7-50.7c-8.5-8.5-25.3,2.1-40.1,25.3c-12.7,21.1-50.7,69.7-82.3,105.6s-54.9,84.5-52.8,107.7c6.3,35.9,23.2,42.2,126.7,44.3c67.6,0,128.8,6.3,135.1,14.8c8.5,6.3-21.1,29.6-63.3,48.6c-42.2,21.1-76,44.3-76,52.8s-21.1,10.6-46.5,4.2c-33.8-6.3-40.1-4.2-21.1,10.6c19,12.7,2.1,16.9-52.8,14.8c-65.4-4.2-86.6,4.2-114,46.5c-27.4,42.2-38,46.4-59.1,21.1c-16.9-23.2-19-46.5-2.1-88.7c27.5-73.9-6.3-120.4-82.3-111.9c-48.6,6.3-54.9,14.8-48.6,78.1c2.1,38-6.3,84.5-19,99.2c-14.8,16.9-19,35.9-12.7,42.2c12.7,14.8-76,105.6-137.2,137.2c-84.5,44.3-225.9,42.2-272.4-4.2c-23.2-23.2-38-57-31.7-71.8c6.4-19,0-25.3-21.1-16.9c-14.8,6.3-29.6,21.1-29.6,31.7c0,12.7-14.8,8.4-33.8-6.3c-31.7-25.3-29.6-31.7,10.5-63.3c50.7-42.2,59.1-86.6,12.7-69.7c-23.2,10.6-27.4,4.2-19-19c10.6-29.6,2.1-31.7-59.1-14.8c-109.8,33.8-236.5,135.1-242.8,196.4c-2.1,29.6-16.9,76-33.8,103.5c-16.9,27.5-38,80.2-46.5,118.2c-12.7,61.3-8.4,71.8,31.7,82.4c44.3,12.7,44.3,12.7,2.1,57c-23.2,23.2-61.2,95-84.5,156.2c-25.3,63.3-59.1,128.8-76,145.7c-35.9,33.8-42.2,90.8-10.6,90.8c10.6,0,35.9,31.7,52.8,69.7c19,35.9,46.5,90.8,63.3,120.4c25.3,44.3,25.3,54.9,0,69.7c-84.5,46.5,2.1,154.1,192.2,238.6c63.3,27.4,114,59.1,114,71.8c0,10.6,10.6,21.1,23.2,21.1c12.7,0,16.9-14.8,10.6-35.9c-12.7-33.8-12.7-33.8,25.3,0c25.3,23.2,38,61.2,35.9,101.4c-2.1,35.9,8.4,76,21.1,90.8c38,38,120.4,202.7,137.3,276.6c8.4,35.9,23.2,80.2,31.7,101.3c10.6,25.3,4.2,35.9-16.9,35.9s-35.9,23.2-40.1,69.7c-4.2,50.7-16.9,69.7-52.8,73.9c-52.8,8.5-114,141.5-114,247c0,183.7,14.8,255.5,61.2,301.9c61.3,61.2,59.2,128.8-6.3,200.6c-29.5,31.7-57,57-59.1,57s-6.3-25.3-6.3-54.9c-6.3-88.7-69.7-141.5-158.4-128.8c-84.5,10.6-272.4,95-390.6,175.3c-71.8,48.6-88.7,52.8-154.1,31.7c-48.6-14.8-82.3-14.8-95-2.1C4402.4,4408.2,4358.1,4401.9,4358.1,4366z"/><path d="M5152,2714.8c-12.7-29.6-10.6-31.7,10.6-12.7c14.8,14.8,21.1,31.7,14.8,38C5171,2746.5,5158.3,2735.9,5152,2714.8z"/><path d="M5029.5,2007.5c-6.3-14.8,4.2-50.7,23.2-78.1c16.9-27.5,31.7-76,33.8-105.6c0-63.3,27.4-71.8,61.2-19c16.9,29.6,14.8,48.6-4.2,82.3c-16.9,25.3-21.1,50.7-10.6,59.1c10.6,6.3,19,27.5,16.9,44.3C5149.9,2030.7,5042.2,2045.5,5029.5,2007.5z"/><path d="M5244.9,1863.9c29.6-21.1,54.9-35.9,61.2-31.7c12.7,14.8-57,73.9-86.6,73.9C5204.8,1906.2,5215.3,1887.1,5244.9,1863.9z"/><path d="M5367.3,1806.9c14.8-6.3,33.8-4.2,40.1,2.1c8.5,6.3-4.2,12.7-27.5,10.6C5356.8,1819.6,5350.4,1813.2,5367.3,1806.9z"/><path d="M5097.1,1469.1c0-19,114-111.9,137.2-111.9c23.2,0-10.6,40.1-73.9,84.5C5124.5,1467,5097.1,1477.5,5097.1,1469.1z"/><path d="M6526.5,1384.6c-8.5-6.3-14.8-54.9-14.8-103.5c0-52.8-12.7-103.5-31.7-122.5c-42.2-42.2-40.1-61.2,12.7-92.9c31.7-21.1,50.7-21.1,71.8-4.2c16.9,14.8,40.1,19,52.8,10.6c10.6-6.3,21.1,2.1,21.1,19c0,19,10.6,33.8,21.1,33.8c35.9,0,25.3,147.8-12.7,162.6c-16.9,6.3-42.2,33.8-52.8,61.2C6575.1,1399.4,6551.9,1412.1,6526.5,1384.6z"/><path d="M3914.6,1232.6c0-29.6,101.3-88.7,116.1-67.6c6.3,10.6-10.6,35.9-35.9,52.8C3942.1,1255.8,3914.6,1260,3914.6,1232.6z"/><path d="M4417.2,1110.1c14.8-6.3,33.8-4.2,40.1,2.1c8.4,6.3-4.2,12.7-27.5,10.6C4406.6,1122.8,4400.3,1116.5,4417.2,1110.1z"/><path d="M5118.2,1093.2c0-10.6,116.1-73.9,137.2-73.9c6.3,0,2.1,19-10.6,42.2C5225.9,1097.5,5118.2,1124.9,5118.2,1093.2z"/><path d="M5046.4,1025.7c-27.5-69.7-10.6-126.7,50.7-171l63.3-48.6l25.3,59.1c50.7,122.5,42.2,143.6-67.6,175.2C5071.7,1053.1,5054.8,1051,5046.4,1025.7z"/><path d="M4085.7,1021.4c-44.3-27.5-12.7-86.6,38-71.8c33.8,8.4,44.3,2.1,44.3-31.7c0-25.3,27.4-63.3,63.3-88.7c76-54.9,126.7-143.6,126.7-223.8c0-31.7,21.1-80.2,44.3-105.6c25.3-27.4,48.6-76,52.8-107.7c2.1-31.7,31.7-80.2,61.2-107.7c50.7-42.2,52.8-50.7,23.2-80.2c-42.2-40.1-42.2-44.3-2.1-44.3c16.9,0,31.7,10.6,31.7,21.1s21.1,14.8,44.3,8.5c25.3-6.3,59.1,0,76,19c16.9,16.9,40.1,25.3,50.7,19c10.6-8.4,19-6.3,21.1,4.2c0,8.4,4.2,38,6.3,63.3c4.2,27.4,21.1,65.4,40.1,86.6c38,42.2,48.6,120.4,16.9,139.4c-27.5,19-14.8,173.1,19,213.3c23.2,29.6,21.1,35.9-16.9,46.5c-25.3,6.3-46.5,19-46.5,29.6c0,38-154.1,156.3-194.3,149.9c-23.2-4.2-54.9,4.2-71.8,19c-19,14.8-99.2,27.5-183.7,29.6s-166.8,10.6-183.7,19C4130,1034.1,4102.6,1032,4085.7,1021.4z"/><path d="M6486.4,814.5c12.7-4.2,38-4.2,52.8,0c12.7,6.3,2.1,10.6-27.5,10.6C6482.2,825.1,6471.6,820.9,6486.4,814.5z"/><path d="M5751.6,749.1c0-33.8,160.5-173.1,198.5-173.1c29.6,0,10.6,40.1-25.3,50.7c-19,6.3-54.9,46.5-76,86.6C5806.5,791.3,5751.6,812.4,5751.6,749.1z"/><path d="M5962.8,546.4c0-4.2,16.9-21.1,38-35.9c31.7-27.4,33.8-25.3,6.3,8.4C5979.7,552.7,5962.8,563.3,5962.8,546.4z"/><path d="M6167.6,461.9c-10.6-25.3,95-202.7,120.4-202.7c21.1,0-38,171-71.8,200.6C6184.5,489.4,6178.1,489.4,6167.6,461.9z"/><path d="M5187.9,445c-31.7-14.8-48.6-42.2-48.6-80.2c0-29.6-10.6-65.5-23.2-78.1c-14.8-14.8-16.9-40.1-6.3-63.3c8.4-21.1,16.9-50.7,19-63.3c2.1-40.1,38-44.3,44.4-6.3c2.1,16.9,19,95,33.8,175.2c16.9,78.1,29.6,141.5,29.6,139.4C5234.3,468.2,5213.2,457.7,5187.9,445z"/><path d="M5308.2,392.2c0-27.4,10.6-48.6,21.1-48.6c27.5,0,27.5,23.2,0,63.3C5312.5,432.4,5308.2,430.2,5308.2,392.2z"/><path d="M7060.7,411.2c0-27.5-251.3-40.1-394.9-21.1c-38,6.3-69.7,4.2-69.7-2.1c0-8.4,19-63.3,42.2-126.7c46.5-128.8,95-192.1,147.8-192.1c21.1,0,76-46.5,124.6-103.5c67.5-78.1,99.2-101.3,130.9-92.9c40.1,10.6,42.2,6.3,29.6-38c-14.8-48.6-65.4-103.5-95-103.5c-8.5,0-25.3,25.3-40.1,54.9c-12.7,31.7-29.5,50.7-35.9,44.4c-16.9-16.9,65.4-152,97.1-158.4c54.9-12.7,67.6-42.2,14.8-31.7c-35.9,6.3-67.6-4.2-97.1-33.8c-59.1-59.1-116.1-54.9-145.7,8.5c-31.7,69.7-31.7,73.9,6.3,73.9c16.9,0,31.7,8.5,31.7,19c0,71.8-76,139.3-135.1,116.1c-27.4-10.6-25.3-21.1,10.6-84.5c54.9-99.2,50.7-109.8-14.8-48.6l-57,50.7l16.9-84.5c8.4-46.5,23.2-95,33.8-109.8c12.7-12.7,16.9-71.8,12.7-130.9c-4.2-76,2.1-109.8,23.2-118.2c48.6-19,61.2-12.7,73.9,33.8c10.6,35.9,16.9,38,52.8,16.9c23.2-14.8,59.1-54.9,78.1-88.7c33.8-54.9,33.8-73.9,10.6-177.4c-21.1-82.3-21.1-120.4-4.2-137.3c12.7-12.7,16.9-50.7,10.6-82.3c-8.4-40.1-2.1-61.2,14.8-61.2c12.7,0,54.9-21.1,88.7-46.5l65.4-46.5l-14.8,63.3c-46.4,175.3-27.4,232.3,35.9,109.8c21.1-46.5,33.8-57,33.8-31.7c2.1,29.6,12.7,35.9,44.3,25.3c33.8-10.6,42.2-4.2,42.2,38c0,29.6-10.6,57-21.1,61.2c-12.7,4.2-25.3,33.8-29.6,67.6c-4.2,31.7-29.6,84.5-59.1,114c-46.5,50.7-52.8,71.8-46.5,202.7c4.2,82.3-2.1,158.4-12.7,171c-12.7,14.8-2.1,21.1,29.6,21.1c65.4-4.2,97.1-27.4,97.1-71.8c0-35.9,16.9-38,147.8-33.8c130.9,6.3,152,2.1,171-35.9c12.7-23.2,27.5-38,33.8-31.7c10.6,12.7-38,103.5-67.6,124.6c-10.6,8.4-25.3,4.2-33.8-8.5c-8.5-14.8-19-14.8-27.5,0c-6.3,12.7,2.1,35.9,19,54.9c29.6,27.4,27.5,40.1-23.2,111.9c-31.7,48.6-50.7,99.2-44.4,128.8c4.2,25.3,2.1,50.7-6.3,57c-12.7,8.5-10.6,90.8,4.2,232.3c2.1,23.2,12.7,48.6,23.2,54.9c27.5,19-44.3,82.3-95,82.3c-31.7,0-40.1,10.6-31.7,42.2c14.8,57-42.2,122.5-126.7,145.7C7092.4,415.4,7060.7,419.7,7060.7,411.2z"/><path d="M5950.1,343.7c6.4-33.8,4.2-63.3-4.2-63.3c-8.5,0-16.9-23.2-16.9-52.8c-2.1-29.6,4.2-52.8,14.8-52.8s0-38-23.2-84.5c-69.7-135.1-46.5-145.7,59.1-25.3c109.8,120.4,149.9,126.7,190,33.8c14.8-27.5,33.8-50.7,46.5-50.7c10.6,0,21.1-12.7,21.1-29.6c0-16.9,23.2-35.9,50.7-42.2c29.6-6.3,82.3-38,120.3-69.7l67.6-57l-14.8,82.4c-19,99.2-97.1,242.8-133,242.8c-40.1,0-44.3,2.1-145.7,101.3c-50.7,48.6-111.9,88.7-135.1,88.7c-23.2,0-42.2,10.5-42.2,21.1c0,12.7-14.8,21.1-33.8,21.1C5943.8,407,5939.5,392.2,5950.1,343.7z"/><path d="M6465.3,350c-69.7-48.6-73.9-59.1-52.8-105.6l23.2-50.7l31.7,54.9c19,29.6,42.2,50.7,54.9,44.3c10.6-4.2,21.1,19,21.1,52.8s0,61.2,0,59.1C6543.4,402.8,6507.5,379.6,6465.3,350z"/><path d="M5451.8,347.9c-54.9-10.6-46.4-31.7,27.5-86.6c69.6-50.7,114-38,99.2,29.6C5572.1,333.1,5506.7,360.6,5451.8,347.9z"/><path d="M3775.3,202.2c6.3-65.4,71.8-168.9,118.2-181.6c23.2-6.3,42.2-2.1,42.2,6.3c0,10.5,33.8,12.7,76,6.3l78.1-12.6l-40.1,67.6c-21.1,35.9-42.2,57-46.4,44.3c-12.7-33.8-57-25.3-99.2,21.1c-21.1,23.2-50.7,42.2-67.6,42.2c-14.8,0-27.4,10.5-27.4,21.1c0,12.7-8.4,21.1-19,21.1C3781.6,238.1,3773.2,221.2,3775.3,202.2z"/><path d="M4740.2,56.5c0-23.2,6.3-29.6,12.7-12.7c6.3,14.8,4.2,33.8-2.1,40.1C4744.5,92.4,4738.1,79.7,4740.2,56.5z"/><path d="M3779.5-11.1c-6.3-10.6,2.1-42.2,19-73.9c16.9-31.7,23.2-57,14.8-57c-6.3,0-2.1-10.6,12.7-25.3c44.3-44.3,73.9,10.5,57,101.3c-10.6,59.1-19,71.8-33.8,48.6c-12.7-21.1-19-21.1-19-2.1C3830.2,10.1,3796.4,14.3,3779.5-11.1z"/><path d="M3999.1-25.8c0-16.9,4.2-31.7,8.4-31.7c4.2,0,12.7,14.8,21.1,31.7c6.3,16.9,2.1,31.7-8.4,31.7C4007.6,5.8,3999.1-9,3999.1-25.8z"/><path d="M6606.8-15.3c-6.3-10.5-2.1-21.1,8.5-21.1c12.7,0,23.2,10.6,23.2,21.1c0,12.7-4.2,21.1-8.5,21.1C6623.7,5.8,6613.1-2.6,6606.8-15.3z"/><path d="M5078.1-63.8c-16.9-40.1-10.6-48.6,54.9-67.6l73.9-19l-14.8-128.8c-8.4-69.7-19-173.1-21.1-232.3c-2.1-57-21.1-141.5-40.1-185.8c-25.3-57-29.6-90.8-12.7-120.4c14.8-25.3,14.8-57,0-95c-27.4-73.9-27.4-95,6.3-95c16.9,0,42.2,23.2,57,52.8c29.6,54.9,183.7,116.1,289.3,116.1c29.6,0,48.6,12.7,48.6,31.7c0,19,19,31.7,50.7,31.7c52.8,0,90.8,63.3,65.5,105.6c-8.4,12.7,23.2,38,71.8,57c48.6,19,86.6,46.5,86.6,63.3c0,14.8,12.7,27.5,29.6,27.5c16.9,0,29.6,21.1,31.7,48.6c0,25.3,6.3,86.6,10.5,137.2c8.5,71.8,4.3,86.6-14.8,69.7c-31.7-25.3-158.4-73.9-135.1-52.8c16.9,16.9-44.3,92.9-76,92.9c-12.7,0-40.1-14.8-59.2-33.8c-35.9-33.8-44.3-31.7-114,21.1c-40.1,31.7-73.9,65.4-73.9,78.1c0,10.6-12.7,19-25.3,19c-14.8,0-82.4,27.5-149.9,63.3L5095-17.4L5078.1-63.8z"/><path d="M3745.7-308.8c0-10.6-16.9-23.2-35.9-27.5c-31.7-6.3-29.6-10.6,10.6-21.1c35.9-10.6,46.5-4.2,46.5,27.4c0,21.1-4.2,40.1-10.6,40.1C3750-289.8,3745.7-298.2,3745.7-308.8z"/><path d="M3500.8-420.7c-8.4-12.7-14.8-59.1-14.8-105.6c0-50.7-8.5-78.1-23.2-73.9c-35.9,12.7-95-67.6-84.5-118.2c4.2-25.3,16.9-48.6,29.6-52.8c63.3-21.1-44.3-263.9-111.9-255.5c-46.5,6.4-78.1-2.1-73.9-16.9c6.3-38-35.9-95-82.4-114c-31.7-10.6-48.6-31.7-42.2-48.6c6.3-14.8,2.1-40.1-8.4-57c-14.8-23.2-19-21.1-19,12.7c0,29.6-27.4,2.1-84.5-82.4c-44.3-69.7-105.6-141.5-135.1-158.4c-31.7-19-54.9-44.3-54.9-59.1c0-12.7-16.9-38-38-52.8c-21.1-14.8-65.5-63.3-97.1-105.6c-38-50.7-78.1-80.2-105.6-80.2c-48.6,0-139.4-69.7-139.4-107.7c0-12.7-8.4-16.9-19-10.6c-10.6,6.3-52.8-27.5-97.1-78.1c-42.2-48.6-99.2-111.9-124.6-141.5c-57-63.3-86.6-116.1-105.6-196.4l-14.8-61.2l71.8,54.9c40.1,29.6,86.6,54.9,105.6,54.9c19,0,40.1,23.2,48.6,52.8c10.6,40.1,27.4,52.8,69.7,52.8c35.9,0,80.2,23.2,118.2,63.3c33.8,35.9,71.8,63.3,86.6,63.3c14.8,0,42.2,42.2,63.3,92.9c33.8,78.1,50.7,97.1,107.7,107.7c82.3,14.8,152,73.9,251.3,215.4c46.4,65.4,67.6,114,59.1,141.5c-8.4,27.4-4.2,33.8,12.7,23.2c19-12.7,21.1,0,10.6,48.6c-14.8,73.9,10.6,95,147.8,118.3c139.4,25.3,158.4,33.8,158.4,84.5c0,61.2,69.7,135.1,143.6,152c71.8,19,181.6,107.7,152,124.6c-10.6,6.3-21.1,31.7-21.1,54.9c0,23.2-8.4,35.9-21.1,29.6c-12.7-8.5-21.1,14.8-21.1,50.7c0,42.2-10.6,63.3-25.3,61.2c-16.9-4.2-29.6,19-33.8,52.8c-6.3,52.8,10.6,67.6,65.4,59.1c35.9-6.3,10.6,35.9-29.6,46.5c-35.9,10.6-40.1,19-21.1,54.9c12.7,23.2,23.2,54.9,23.2,71.8C3576.8-412.2,3519.8-389,3500.8-420.7z M3439.6-690.9c-6.3-10.6,2.1-21.1,19-21.1c19,0,33.8-8.4,33.8-19s6.3-38,14.8-59.1c10.6-29.6,2.1-27.4-42.2,12.7c-57,52.8-76,107.7-33.8,107.7C3441.7-669.8,3445.9-678.3,3439.6-690.9z"/><path d="M6237.3-486.1c0-38,10.5-57,31.7-57c27.4,0,29.6,8.5,8.4,48.6C6241.5-424.9,6237.3-424.9,6237.3-486.1z"/><path d="M6412.5-484c-12.7-14.8-23.2-42.2-23.2-59.1c-4.2-73.9-63.3-253.4-99.2-295.6c-14.8-16.9-38-67.6-50.7-109.8c-14.8-42.2-40.1-88.7-57-101.4c-14.8-14.8-29.6-38-29.6-52.8c0-14.8-25.3-63.3-57-107.7c-29.6-44.4-57-107.7-61.2-137.2c-4.2-29.6-16.9-80.2-29.6-111.9c-10.6-31.7-21.1-97.1-21.1-145.7v-86.6l44.4,46.5c23.2,27.4,57,90.8,76,141.5c16.9,52.8,40.1,99.2,50.7,107.7c10.6,6.4,19,35.9,19,65.5c0,57,90.8,196.4,128.8,196.4c10.6,0,46.5,23.2,76,50.7c50.7,48.6,54.9,65.5,63.3,274.5c4.2,156.2,0,223.8-16.9,223.8c-16.9,0-16.9,8.4-4.2,27.4c31.7,40.1,48.6,99.2,29.6,99.2C6440-458.7,6423.1-471.3,6412.5-484z"/><path d="M5831.9-674.1c-69.7-35.9-80.2-52.8-80.2-114c0-42.2-16.9-88.7-40.1-111.9c-33.8-33.8-38-61.2-27.5-181.6c10.5-133,6.3-145.7-40.1-181.6c-27.4-21.1-84.5-40.1-126.7-40.1c-61.2,0-80.2-10.6-99.2-52.8c-40.1-84.5-31.7-118.2,54.9-232.3c54.9-71.8,99.2-109.8,139.3-116.1c63.3-10.6,80.3-31.7,111.9-137.2c31.7-107.7,164.7-97.1,228,16.9c38,71.8,38,73.9-12.7,143.6c-27.4,40.1-54.9,73.9-63.3,78.1c-23.2,10.6,4.3,244.9,35.9,293.5c16.9,25.3,44.3,101.3,61.2,166.8c16.9,67.6,48.6,141.5,69.7,164.7c57,63.3,92.9,209,69.7,268.1c-10.6,27.5-21.1,44.4-21.1,35.9c-2.1-12.7-59.1,0-149.9,31.7C5924.8-636.1,5874.1-648.7,5831.9-674.1z"/><path d="M4516.4-733.2c-6.3-10.6-2.1-21.1,8.4-21.1c12.7,0,23.2,10.6,23.2,21.1c0,12.7-4.2,21.1-8.4,21.1C4533.3-712.1,4522.7-720.5,4516.4-733.2z"/><path d="M7493.6-775.4c-6.3-10.6,8.5-29.6,33.8-42.2c59.1-31.7,69.7-16.9,19,27.4C7523.1-771.2,7499.9-764.9,7493.6-775.4z"/><path d="M5525.7-843c-48.6-54.9-80.2-156.2-52.8-173.1c33.8-21.1,105.6,50.7,120.4,116.1C5612.3-811.3,5580.6-783.9,5525.7-843z"/><path d="M6680.7-836.7c0-12.7-12.7-16.9-29.6-10.6c-14.8,6.3-33.8-4.2-42.2-25.3c-10.6-25.3-4.2-31.7,21.1-21.1c16.9,6.3,52.8,12.7,76,12.7c23.2,0,38,10.6,33.8,25.4C6729.2-824,6680.7-807.1,6680.7-836.7z"/><path d="M3728.8-906.3c-38-38-31.7-80.2,12.7-80.2c38,2.1,124.6,57,107.7,71.8C3821.7-889.4,3750-885.2,3728.8-906.3z"/><path d="M7436.6-1037.2c-19-27.4-42.2-82.3-48.6-124.6c-12.7-63.3-8.5-78.1,19-78.1c31.7,0,44.3-44.3,35.9-130.9c-2.1-21.1,8.5-38,27.5-38c25.3,0,29.6,33.8,23.2,202.7c-4.2,111.9-10.6,206.9-14.8,209C7474.6-992.9,7455.6-1011.9,7436.6-1037.2z"/><path d="M6399.8-1085.8c-8.4-6.3-14.8-23.2-14.8-35.9c0-12.7,10.6-10.6,25.4,4.2c12.7,12.7,19,29.6,14.8,35.9C6418.8-1075.2,6406.2-1077.3,6399.8-1085.8z"/><path d="M6486.4-1244.2c-21.1-25.3-38-54.9-38-63.3c0-8.4-14.8-16.9-31.7-16.9c-19,0-59.1-25.4-88.7-54.9c-52.8-52.8-52.8-59.1-19-82.4c33.8-25.3,33.8-29.6-10.6-71.8c-52.8-48.6-40.1-88.7,14.8-42.2c23.2,19,78.1,27.5,168.9,21.1c114-4.2,137.2,0,179.5,42.2c25.3,25.3,65.5,46.5,88.7,48.6c42.2,2.1,80.2,54.9,40.1,54.9c-19,0-14.8,101.3,8.4,179.5c12.7,40.1,12.7,40.1-27.4,4.2c-40.1-33.8-46.5-33.8-76-4.2C6646.9-1180.8,6528.6-1189.2,6486.4-1244.2z"/><path d="M7145.2-1210.4c0-23.2,88.7-137.2,99.2-128.8c14.8,16.9-54.9,141.5-78.1,141.5C7153.6-1197.7,7145.2-1204,7145.2-1210.4z"/><path d="M7696.3-1315.9c-48.6-50.7-48.6-52.8-12.7-92.9c21.1-23.2,54.9-42.2,78.1-42.2c31.7,0,35.9,10.6,25.4,59.1C7755.4-1261,7751.2-1258.9,7696.3-1315.9z"/><path d="M7324.7-1457.4c-8.5-29.6,6.3-118.3,31.7-202.7c25.4-84.5,42.2-181.6,38-219.6c-6.3-59.1-14.8-67.6-80.2-73.9c-50.7-6.3-80.2,4.2-99.2,29.6c-23.2,33.8-27.4,29.6-27.4-40.1c0-103.5-46.5-122.5-120.4-48.6c-80.2,80.2-135.1,65.4-147.8-40.1c-4.2-46.5-8.4-114-8.4-152c2.1-90.8-25.4-101.3-126.7-50.7c-109.8,59.1-158.4,33.8-177.4-86.6c-19-116.1-42.2-143.6-120.4-143.6c-54.9,0-145.7-48.6-223.8-120.4c-14.8-14.8-40.1-27.4-52.8-27.4c-14.8,0,10.6,31.7,54.9,69.7c78.1,67.6,80.2,69.7,61.2,166.8c-27.5,141.5-78.1,213.3-143.6,200.6c-31.7-4.2-67.6,6.3-97.1,29.5c-54.9,48.6-61.2,48.6-46.4,8.5c8.4-16.9,4.2-31.7-8.5-31.7c-10.6,0-25.3-19-31.7-44.3c-6.4-25.3-27.5-42.2-50.7-40.1c-105.6,12.7-135.1,0-164.7-71.8c-16.9-40.1-25.4-86.6-19-103.4c19-54.9-114-109.8-173.2-71.8c-14.8,8.5-35.9,0-50.7-16.9c-14.8-16.9-48.6-31.7-76-31.7c-126.7,0-268.1-149.9-247-259.7c6.3-31.7,0-69.7-12.7-84.5c-12.7-14.8-25.3-59.1-27.5-95c-2.1-38-25.3-88.7-52.8-114c-48.6-46.5-61.2-111.9-31.7-158.4c23.2-38,139.4-76,147.8-50.7c4.2,12.7,23.2,23.2,42.2,23.2c31.7,0,31.7,4.2,4.2,21.1c-25.3,16.9-27.5,27.4-4.2,63.3c12.7,23.2,25.3,61.2,25.3,84.5c0,23.2,16.9,57,40.1,76c21.1,19,33.8,50.7,29.6,71.8c-6.3,25.3,4.2,42.2,33.8,52.8c25.4,6.3,44.4,23.2,44.4,33.8c0,12.7-10.5,14.8-25.3,6.3c-14.8-8.4-4.2,12.7,21.1,50.7c50.7,69.7,109.8,99.2,168.9,80.2c31.7-10.6,35.9-35.9,33.8-160.5c-4.2-149.9,14.8-179.5,71.8-122.5c35.9,35.9,31.7,65.4-8.5,50.7c-25.3-10.6-31.7-4.2-21.1,21.1c6.4,16.9,12.7,42.2,12.7,54.9c0,12.7,19,6.3,42.2-14.8c40.1-38,42.2-35.9,42.2,8.5c0,57,35.9,128.8,65.5,128.8c12.7,0,16.9-8.4,10.6-19c-8.5-10.6,0-25.3,12.7-31.7c21.1-10.6,21.1-14.8,2.1-25.3c-48.6-21.1-31.7-76,14.8-61.2c31.7,10.6,54.9,0,86.6-40.1c48.5-61.2,82.3-71.8,82.3-23.2c0,16.9-8.4,31.7-19,31.7c-46.5,0-44.4,73.9,2.1,109.8c42.2,29.5,44.3,42.2,23.2,78.1c-21.1,33.8-19,42.2,6.3,52.8c57,21.1,107.7,12.7,158.3-27.5c27.5-21.1,84.5-48.6,126.7-63.3c52.8-16.9,88.7-48.6,116.1-97.1c21.1-40.1,52.8-73.9,67.6-73.9c19,0,23.3-14.8,14.8-46.5c-8.4-27.5-19-65.4-23.2-84.5c-6.3-19-29.6-42.2-50.7-48.6c-54.9-16.9-114-200.6-76-232.3c14.8-10.6,27.4-73.9,31.7-137.2c6.3-179.5,67.5-249.2,314.6-369.5c111.9-54.9,234.4-103.5,272.4-109.8c63.3-10.6,69.7-6.3,103.4,76c35.9,92.9,82.4,111.9,103.5,44.3c8.5-27.4-2.1-65.4-29.6-103.5c-42.2-59.1-42.2-59.1-2.1-97.1c23.2-21.1,42.2-54.9,42.2-78.1c0-143.6,251.3,164.7,255.5,316.7c4.2,97.1-82.3,282.9-143.6,310.4c-25.3,10.6-50.7,35.9-54.9,54.9c-12.7,48.6,71.8,223.8,124.6,261.8c52.8,35.9,103.5,8.5,88.7-46.5c-6.3-25.3,0-42.2,16.9-42.2c40.1,0,38,128.8,0,160.5c-23.2,19-31.7,19-40.1-2.1c-6.3-14.8-12.7-6.3-12.7,19c-2.1,40.1,65.5,111.9,105.6,111.9c8.5,0,19-35.9,27.5-82.4c6.3-44.3,27.4-92.9,44.3-107.7c16.9-14.8,31.7-48.6,31.7-73.9c0-27.4,14.8-52.8,31.7-61.2c23.2-8.4,31.7-44.3,31.7-122.5c2.1-116.1,50.7-247.1,69.7-185.8c23.2,69.7,31.7,253.4,12.7,263.9c-10.6,8.5-19,31.7-19,57c0,29.5,10.6,38,31.7,29.5c19-6.3,38,2.1,44.3,19c8.5,16.9,29.6,31.7,48.6,31.7c50.7,0,126.7,149.9,111.9,221.7c-4.2,31.7,0,63.3,12.7,71.8c38,23.2-16.9,173.1-84.5,230.1c-54.9,46.5-54.9,50.7-25.4,120.4c44.4,107.7,40.1,164.7-12.7,147.8c-23.2-8.5-42.2-4.2-42.2,8.4c0,12.7,8.4,23.2,16.9,23.2c10.5,0,16.9,40.1,16.9,90.8c-2.1,86.6-4.2,88.7-76,95c-105.6,10.6-116.1,46.5-31.7,116.1c86.6,71.8,92.9,130.9,25.3,204.8c-40.1,42.2-46.5,65.4-33.8,122.5c14.8,63.3-6.3,92.9-33.8,46.5c-21.1-33.8-73.9-25.3-88.7,16.9c-8.4,19-29.6,46.5-46.5,61.2c-25.3,21.1-27.4,25.3-4.2,27.4c50.7,0-14.8,59.1-99.2,86.6c-92.9,29.6-128.8,57-99.2,78.1c40.1,27.4,29.6,61.2-16.9,57c-25.3-2.1-57,4.2-71.8,14.8C7343.7-1410.9,7333.1-1419.4,7324.7-1457.4z"/><path d="M7645.6-1506c-4.2-29.6,0-57,8.4-63.3c10.6-6.3,19-2.1,19,10.6c0,10.6,14.8,33.8,31.7,50.7c25.3,27.4,25.3,31.7-8.4,42.2C7666.7-1459.5,7654-1470.1,7645.6-1506z"/><path d="M6163.4-1788.9c-6.3-10.6-33.8-21.1-59.1-21.1l-46.5-2.1l46.5-38c61.2-50.7,133-35.9,118.2,21.1C6207.7-1778.3,6180.2-1759.3,6163.4-1788.9z"/><path d="M6836.9-1814.2c-8.4-12.7,2.1-35.9,23.2-52.8c67.6-48.6,90.8-31.7,61.2,44.4C6906.6-1782.6,6858-1778.3,6836.9-1814.2z"/><path d="M2062.9-2430.8c-6.3-10.6-2.1-12.7,10.6-4.2c14.8,8.4,25.3,2.1,25.3-16.9c0-19,14.8-33.8,31.7-33.8c16.9,0,31.7,19,31.7,40.1c0,29.5-12.7,40.1-44.3,38C2094.6-2409.7,2069.2-2420.2,2062.9-2430.8z"/><path d="M1934.1-2572.3c-29.6-44.3-16.9-166.8,16.9-166.8c38,0,57,135.1,25.3,183.7C1963.7-2536.4,1953.1-2542.7,1934.1-2572.3z"/><path d="M2858.9-3266.9c0-10.6,8.4-21.1,19-21.1c12.7,0,27.5,10.6,33.8,21.1c6.3,12.7-2.1,21.1-19,21.1C2873.7-3245.8,2858.9-3254.3,2858.9-3266.9z"/><path d="M7884.2-3372.5c0-10.6,10.6-21.1,21.1-21.1c12.7,0,21.1,10.6,21.1,21.1c0,12.7-8.4,21.1-21.1,21.1C7894.8-3351.4,7884.2-3359.8,7884.2-3372.5z"/><path d="M5156.2-3387.3c12.7-4.2,38-4.2,52.8,0c12.7,6.3,2.1,10.6-27.4,10.6C5152-3376.7,5141.4-3381,5156.2-3387.3z"/><path d="M5105.5-3467.5c-8.5-19-27.4-29.6-46.5-27.4c-16.9,4.2-35.9-6.3-40.1-19c-6.3-14.8,0-27.5,12.7-27.5c12.7,0,23.2-12.7,23.2-27.4c0-16.9,16.9-46.5,40.1-65.5c50.7-46.4,145.7-25.3,171,40.1c10.6,27.5,35.9,52.8,57,59.1c35.9,8.5,33.8,8.5-4.2,23.2c-23.2,8.4-67.6,29.6-99.2,46.4C5147.8-3427.4,5120.3-3427.4,5105.5-3467.5z"/><path d="M4193.4-3731.5c-21.1-35.9-21.1-42.2,6.3-42.2c16.9,0,31.7,19,31.7,42.2s-2.1,42.2-6.3,42.2C4222.9-3689.2,4208.1-3708.2,4193.4-3731.5z"/><path d="M4463.6-3917.3c-27.4-21.1-42.2-50.7-35.9-63.3c14.8-23.2,126.7-19,185.8,4.2c21.1,10.6,40.1,2.1,48.6-19c10.6-31.7,16.9-31.7,59.1-2.1c35.9,25.3,73.9,97.1,52.8,97.1c-2.1,0-35.9-8.5-73.9-19c-54.9-16.9-71.8-14.8-82.4,10.6C4603-3866.6,4520.6-3870.8,4463.6-3917.3z"/><path d="M4590.3-4048.2c0-10.6,10.6-21.1,23.2-21.1c10.6,0,14.8,10.6,8.4,21.1c-6.3,12.7-16.9,21.1-23.2,21.1C4594.5-4027.1,4590.3-4035.5,4590.3-4048.2z"/><path d="M4404.5-4124.2c-14.8-16.9-16.9-29.6-6.3-29.6c21.1,0,52.8,40.1,42.2,52.8C4436.2-4098.9,4419.3-4107.3,4404.5-4124.2z"/><path d="M4370.7-4223.4c-33.8-23.2-31.7-27.5,16.9-31.7c40.1-2.1,50.7,4.2,42.2,27.5C4415.1-4189.6,4417.2-4189.6,4370.7-4223.4z"/><path d="M7293-4322.7c0-10.6,10.6-21.1,21.1-21.1c12.7,0,21.1,10.6,21.1,21.1c0,12.7-8.5,21.1-21.1,21.1C7303.5-4301.6,7293-4310,7293-4322.7z"/><path d="M3842.9-4447.2c-147.8-92.9-177.4-137.2-73.9-107.7c38,10.6,76,31.7,84.5,46.5c21.1,31.7,109.8,38,128.8,8.4c10.6-16.9,16.9-14.8,16.9,4.2c0,12.7,21.1,25.3,44.3,25.3c44.3,0,44.3,2.1-10.6,52.8c-31.7,29.6-59.1,52.8-61.2,50.7C3969.6-4367,3910.4-4405,3842.9-4447.2z"/><path d="M3724.6-4660.5c0-10.6,10.6-21.1,23.2-21.1c10.6,0,14.8,10.6,8.4,21.1c-6.3,12.7-16.9,21.1-23.2,21.1C3728.8-4639.4,3724.6-4647.8,3724.6-4660.5z"/><path d="M3517.7-4745c0-40.1,4.2-57,10.6-35.9c4.2,19,4.2,52.8,0,73.9C3521.9-4687.9,3517.7-4704.8,3517.7-4745z"/></g></g>
</svg>